<?xml version="1.0" standalone="no"?>
<!DOCTYPE svg PUBLIC "-//W3C//DTD SVG 20010904//EN"
 "http://www.w3.org/TR/2001/REC-SVG-20010904/DTD/svg10.dtd">
<svg version="1.0" xmlns="http://www.w3.org/2000/svg"
 width="996.000000pt" height="996.000000pt" viewBox="0 0 996.000000 996.000000"
 preserveAspectRatio="xMidYMid meet">
<metadata>
Created by potrace 1.14, written by Peter Selinger 2001-2017
</metadata>
<g transform="translate(0.000000,996.000000) scale(0.100000,-0.100000)"
fill="#000000" stroke="none">
<path d="M1618 9955 c-2 -2 -29 -6 -59 -8 -31 -2 -60 -6 -65 -9 -5 -3 -33 -9
-62 -13 -103 -13 -398 -122 -440 -162 -8 -7 -18 -11 -23 -8 -5 4 -9 2 -9 -3 0
-5 -8 -12 -17 -16 -16 -5 -40 -18 -67 -39 -64 -46 -153 -113 -162 -122 -6 -5
-34 -31 -62 -57 -43 -41 -116 -121 -184 -206 -10 -12 -30 -41 -44 -64 -15 -24
-32 -46 -38 -50 -6 -4 -7 -8 -3 -8 5 0 0 -12 -11 -27 -22 -32 -103 -195 -106
-215 -1 -7 -8 -24 -16 -38 -7 -14 -13 -26 -12 -27 1 -2 1 -5 1 -8 -1 -3 -3 -9
-4 -15 -1 -5 -3 -11 -5 -12 -1 -3 -6 -21 -13 -50 -1 -7 -5 -17 -8 -23 -4 -5
-10 -28 -14 -50 -7 -41 -12 -64 -19 -102 -25 -125 -26 -396 -1 -524 3 -13 8
-40 11 -59 24 -136 126 -415 157 -428 4 -2 7 -9 7 -16 0 -12 83 -148 105 -172
5 -7 19 -25 30 -40 54 -76 198 -222 285 -288 61 -46 218 -149 230 -151 3 -1
33 -15 68 -33 34 -18 62 -29 62 -26 0 4 9 -1 21 -12 12 -10 23 -18 25 -16 2 1
6 1 9 1 3 -1 10 -3 15 -4 6 -1 12 -4 15 -5 3 -1 8 -3 13 -5 4 -1 14 -5 22 -8
20 -9 127 -37 165 -44 17 -3 37 -7 45 -8 8 -2 18 -4 23 -4 4 -1 7 -5 7 -9 0
-5 -296 -8 -657 -7 -380 0 -663 -3 -670 -8 -10 -8 -13 -347 -13 -1639 0 -1501
1 -1629 16 -1635 9 -3 326 -6 703 -5 377 1 693 2 701 2 8 0 49 -1 90 -3 41 -1
83 1 93 6 9 4 17 4 17 0 0 -4 24 -8 52 -8 42 0 52 -3 49 -15 -2 -8 -4 -294 -5
-634 0 -477 3 -621 12 -624 7 -2 12 -10 12 -17 0 -8 9 -16 20 -20 19 -6 19 -8
4 -38 -9 -17 -23 -37 -30 -45 -8 -7 -14 -17 -14 -21 0 -5 -22 -41 -48 -82 -27
-41 -57 -90 -68 -109 -20 -36 -30 -51 -52 -75 -6 -7 -12 -17 -12 -22 0 -4 -14
-28 -31 -53 -16 -25 -34 -54 -40 -65 -11 -24 -32 -58 -40 -65 -11 -11 -167
-266 -167 -274 0 -5 -4 -12 -9 -15 -9 -5 -112 -165 -153 -236 -38 -66 -144
-231 -159 -249 -9 -10 -15 -20 -14 -22 2 -2 -12 -28 -30 -56 -128 -202 -174
-276 -180 -288 -4 -8 -15 -27 -25 -41 -9 -15 -48 -76 -85 -135 -38 -60 -82
-131 -99 -157 -17 -26 -27 -51 -24 -54 3 -4 220 -8 482 -9 l475 -2 77 116 c42
64 80 121 85 127 27 36 97 148 97 156 0 5 4 9 9 9 5 0 15 12 22 27 8 16 42 69
77 120 34 51 62 97 62 102 0 5 4 11 8 13 4 1 68 95 142 208 74 113 138 210
143 215 19 25 114 171 130 201 9 19 22 34 28 34 5 0 8 4 5 8 -3 5 6 21 20 37
13 15 24 31 24 35 0 4 11 20 24 35 14 16 23 32 20 37 -3 4 -1 8 3 8 5 0 17 16
27 35 11 19 22 35 26 35 4 0 13 14 20 30 7 17 16 30 21 30 5 0 9 5 9 10 0 6
16 34 35 63 20 28 40 59 45 67 6 8 60 89 120 179 l109 165 76 0 c41 1 75 -1
76 -4 2 -9 6 -124 13 -335 10 -318 16 -485 21 -645 23 -667 28 -839 29 -977 1
-73 4 -133 8 -133 4 0 5 -6 2 -14 -3 -8 -1 -17 4 -20 5 -3 122 -8 258 -11 137
-3 346 -7 464 -10 l215 -5 -1 128 c-5 357 -16 1511 -18 1752 l-1 275 75 -2
c41 -1 78 -2 81 -2 4 -1 26 -31 50 -68 24 -38 47 -69 51 -71 5 -2 8 -8 8 -13
0 -6 5 -15 10 -22 25 -30 170 -249 170 -257 0 -6 3 -10 8 -10 4 0 16 -17 27
-37 11 -20 25 -41 30 -47 6 -6 28 -38 50 -71 22 -33 43 -61 48 -63 4 -2 7 -8
7 -12 0 -5 33 -58 74 -117 40 -59 107 -160 149 -223 42 -63 80 -119 84 -125 4
-5 57 -84 117 -175 60 -91 113 -166 118 -168 4 -2 8 -7 8 -12 0 -5 33 -57 73
-117 40 -59 124 -184 187 -278 63 -93 118 -172 122 -173 5 -2 6 -7 3 -11 -2
-5 6 -18 18 -29 22 -20 34 -21 417 -27 217 -4 439 -7 492 -8 l97 -2 -16 25
c-10 14 -44 68 -77 120 -33 52 -63 96 -68 98 -4 2 -8 8 -8 13 0 6 -17 36 -37
67 -41 62 -43 65 -91 144 -18 29 -67 107 -110 173 -42 66 -83 133 -91 148 -8
15 -18 27 -23 27 -4 0 -8 6 -8 13 0 8 -9 22 -20 32 -11 10 -18 20 -15 23 2 2
-7 19 -20 37 -14 17 -25 37 -25 43 0 6 -3 12 -8 14 -10 4 -132 197 -132 209 0
5 -4 9 -9 9 -5 0 -14 13 -21 30 -7 16 -16 30 -21 30 -5 0 -9 4 -9 10 0 5 -35
63 -77 127 -43 65 -82 127 -88 138 -25 44 -40 70 -45 75 -10 9 -130 201 -130
208 -1 4 -14 23 -30 42 -17 19 -30 40 -30 46 0 7 -6 19 -13 26 -13 14 -106
158 -127 197 -8 16 -9 21 0 16 18 -11 65 13 83 44 15 26 17 84 17 636 0 366
-4 613 -10 624 -9 17 19 18 613 19 342 1 629 2 637 2 8 0 49 -1 90 -3 41 -1
83 1 93 6 9 4 17 4 17 0 0 -10 212 -9 228 1 7 4 12 4 12 -1 0 -10 191 -10 208
0 6 5 12 5 12 0 0 -4 4 -1 10 7 5 9 5 19 -2 27 -6 7 -7 13 -2 13 5 0 9 34 9
75 0 41 -4 75 -8 75 -5 0 -5 5 -1 12 10 16 11 88 1 88 -4 0 -5 6 -1 12 12 19
13 52 2 66 -7 8 -7 12 -1 12 6 0 9 11 8 25 -4 28 0 27 56 -18 20 -15 63 -36
94 -46 97 -30 283 -15 316 26 6 7 17 13 23 13 13 0 63 51 93 95 33 48 50 123
49 218 l-1 87 238 0 237 0 0 90 c0 50 2 90 6 90 9 0 169 -104 172 -112 2 -5 7
-8 12 -8 5 0 71 -40 147 -89 76 -49 197 -127 268 -172 72 -46 176 -113 233
-151 56 -37 104 -68 106 -68 2 0 53 -33 114 -72 61 -40 124 -81 139 -90 32
-20 57 -36 95 -60 14 -10 30 -18 35 -18 6 0 9 584 7 1518 -3 1674 -3 1622 -14
1622 -4 0 -68 -40 -141 -88 -74 -48 -152 -99 -174 -112 -22 -13 -41 -28 -43
-32 -2 -4 -8 -8 -13 -8 -5 0 -32 -16 -59 -35 -27 -19 -52 -35 -55 -35 -3 0
-11 -5 -18 -10 -7 -6 -55 -38 -107 -71 -52 -34 -117 -76 -145 -94 -264 -172
-346 -225 -350 -225 -8 0 -100 -65 -103 -72 -2 -5 -8 -8 -13 -8 -5 0 -28 -14
-52 -31 l-42 -31 -3 56 -3 56 -237 0 -237 0 1 138 c0 124 -2 143 -25 197 -37
90 -120 166 -206 190 -58 16 -207 13 -259 -7 -53 -19 -126 -65 -126 -79 0 -5
-8 -9 -17 -9 -10 0 -14 4 -8 8 9 6 12 50 5 77 -1 6 -1 15 0 20 7 29 5 105 -3
105 -6 0 -6 5 0 13 14 18 8 79 -9 91 -10 8 -217 11 -683 10 -654 -1 -666 0
-584 16 120 25 233 58 312 91 37 15 67 25 67 21 0 -4 4 -2 8 3 4 6 30 21 57
34 58 29 187 109 196 123 3 5 9 9 13 8 8 -2 76 51 113 88 13 13 23 21 23 18 0
-6 92 90 155 159 58 65 162 226 214 331 49 99 117 292 125 356 2 18 7 40 10
48 8 23 17 98 19 162 1 32 6 58 10 58 4 0 3 9 -3 19 -7 13 -7 22 0 26 7 4 7
13 0 26 -6 10 -7 19 -3 19 8 0 8 13 -2 125 -10 116 -20 177 -46 274 -22 82
-77 231 -90 245 -5 6 -9 18 -9 28 0 10 -4 18 -10 18 -5 0 -9 3 -8 8 5 13 -93
175 -156 257 -62 82 -205 231 -265 275 -18 14 -43 33 -54 42 -11 10 -43 32
-71 50 -28 18 -53 35 -56 38 -28 29 -310 151 -375 162 -11 2 -22 6 -25 9 -7 8
-159 38 -235 47 -80 9 -337 8 -403 -1 -66 -9 -220 -43 -255 -56 -14 -5 -28 -7
-31 -4 -3 4 -6 2 -6 -4 0 -5 -6 -10 -12 -11 -34 -3 -66 -16 -203 -84 -124 -61
-234 -131 -291 -185 -13 -13 -26 -23 -29 -23 -10 0 -159 -152 -206 -210 -59
-72 -129 -175 -129 -189 0 -6 -4 -11 -9 -11 -5 0 -15 -16 -22 -35 -7 -19 -17
-35 -22 -35 -4 0 -5 -4 -2 -10 3 -5 1 -10 -4 -10 -6 0 -11 -9 -11 -20 0 -11
-3 -20 -8 -20 -4 0 -12 -15 -18 -32 -7 -18 -21 -56 -32 -85 -11 -28 -17 -54
-14 -57 3 -3 1 -6 -4 -6 -9 0 -34 -77 -39 -120 -1 -8 -5 -26 -8 -40 -30 -116
-49 -333 -31 -361 2 -4 0 -10 -6 -14 -6 -4 -8 -10 -5 -14 2 -5 7 -44 11 -87 6
-83 11 -129 14 -129 1 0 4 -13 6 -30 4 -42 8 -58 17 -72 5 -7 6 -13 3 -13 -5
0 18 -87 31 -120 3 -8 7 -20 8 -25 2 -6 17 -46 36 -90 108 -261 289 -495 514
-665 22 -16 45 -33 50 -38 54 -42 209 -126 315 -169 82 -33 270 -87 338 -97
19 -2 36 -6 38 -8 2 -2 -804 -4 -1791 -4 -1546 0 -1909 3 -1767 14 34 3 70 10
80 15 4 3 23 8 42 11 20 3 81 21 135 41 55 20 106 37 113 37 6 1 12 5 12 10 0
4 3 7 8 6 7 -2 102 42 112 52 3 3 25 16 50 29 25 13 55 31 66 40 12 9 32 23
44 31 93 61 285 245 339 324 8 11 18 23 21 26 3 3 25 34 47 70 23 36 46 70 50
75 14 16 83 161 83 174 0 6 5 11 10 11 6 0 10 7 10 16 0 9 7 30 15 47 32 72
79 264 93 382 8 72 8 302 0 365 -14 103 -29 179 -49 245 -11 39 -22 75 -23 80
-3 10 -21 56 -33 85 -3 8 -7 18 -8 23 -2 4 -4 9 -5 12 -1 3 -3 8 -4 13 -7 27
-116 223 -131 234 -7 5 -7 8 0 8 6 0 6 3 -1 8 -5 4 -23 25 -39 47 -48 65 -117
146 -166 195 -53 53 -129 120 -135 120 -2 0 -13 8 -23 18 -37 32 -50 42 -61
42 -5 0 -10 5 -10 10 0 6 -7 10 -15 10 -8 0 -15 4 -15 9 0 5 -8 11 -17 15 -10
3 -31 15 -48 26 -28 18 -70 39 -190 95 -27 13 -63 27 -80 31 -16 4 -35 10 -40
15 -6 4 -22 10 -35 12 -14 2 -32 7 -40 10 -8 4 -26 9 -40 11 -14 3 -36 7 -50
10 -14 3 -45 9 -70 12 -25 3 -49 9 -54 12 -11 6 -341 13 -348 7z m-103 -3185
c3 -5 1 -10 -4 -10 -6 0 -11 5 -11 10 0 6 2 10 4 10 3 0 8 -4 11 -10z"/>
</g>
</svg>
